<svg xmlns="http://www.w3.org/2000/svg" viewBox="0 0 400 440" role="img" aria-label="Line illustration of the Mahakaleshwar temple shikhara above the Kshipra ghats at dusk" fill="none" stroke="currentColor" stroke-width="1.2" stroke-linecap="round" stroke-linejoin="round">
  <defs><radialGradient id="mk-glow" cx="50%" cy="55%" r="50%"><stop offset="0" stop-color="#d9a961" stop-opacity=".22"/><stop offset=".55" stop-color="#d9a961" stop-opacity=".06"/><stop offset="1" stop-color="#d9a961" stop-opacity="0"/></radialGradient></defs><ellipse cx="200" cy="300" rx="330" ry="210" fill="url(#mk-glow)" stroke="none"/><defs><mask id="mk-moon"><circle cx="318" cy="72" r="20" fill="#fff"/><circle cx="326" cy="65" r="17" fill="#000"/></mask></defs>
  <circle cx="318" cy="72" r="20" fill="currentColor" stroke="none" mask="url(#mk-moon)"/>
  <g fill="currentColor" stroke="none" opacity=".55"><circle cx="78" cy="92" r="1.3"/><circle cx="122" cy="58" r="1"/><circle cx="268" cy="132" r="1"/><circle cx="356" cy="152" r="1.3"/><circle cx="46" cy="176" r="1"/><circle cx="246" cy="44" r="1"/></g>
  <path class="d mk-solid" pathLength="1" d="M70 330C70 292 86 262 104 250H112C130 262 146 292 146 330Z"/>
  <path class="d" pathLength="1" d="M74 300Q108 305 142 300M84 272Q108 276 132 272"/>
  <ellipse class="d" pathLength="1" cx="108" cy="246" rx="8" ry="3.5"/>
  <path class="d" pathLength="1" d="M104 242C101 238 103 234 108 234C113 234 115 238 112 242M108 234V224"/>
  <path class="d mk-solid" pathLength="1" d="M330 330C330 292 314 262 296 250H288C270 262 254 292 254 330Z"/>
  <path class="d" pathLength="1" d="M326 300Q292 305 258 300M316 272Q292 276 268 272"/>
  <ellipse class="d" pathLength="1" cx="292" cy="246" rx="8" ry="3.5"/>
  <path class="d" pathLength="1" d="M296 242C299 238 297 234 292 234C287 234 285 238 288 242M292 234V224"/>
  <path class="d mk-solid" pathLength="1" d="M140 330C140 250 160 170 192 128H208C240 170 260 250 260 330Z"/>
  <path class="d" pathLength="1" d="M143.6 270.6Q200 278 256.4 270.6M154 214.7Q200 221 246 214.7M170.4 166Q200 171 229.6 166"/>
  <path class="d" pathLength="1" d="M170 330C171 262 182 196 197 140M230 330C229 262 218 196 203 140M200 140V292"/>
  <ellipse class="d" pathLength="1" cx="200" cy="121" rx="15" ry="6"/>
  <path class="d" pathLength="1" d="M192 115C186 108 190 100 200 99C210 100 214 108 208 115M196 99V94H204V99M200 94V33"/>
  <path class="d" pathLength="1" d="M191 51Q200 56 209 51M191 51C188 45 189 40 192 36M209 51C212 45 211 40 208 36M197 37L200 31L203 37"/>
  <path class="mk-flag" d="M200 58C214 55 226 63 240 59L232 69L240 79C226 83 214 75 200 77Z"/>
  <path class="d" pathLength="1" d="M186 330V308Q200 292 214 308V330"/>
  <circle cx="200" cy="318" r="2.4" fill="currentColor" stroke="none"/>
  <path class="d" pathLength="1" d="M50 330H350V344H50ZM50 344L36 354L22 366L8 378M350 344L364 354L378 366L392 378M36 354H364M22 366H378M8 378H392"/>
  <g class="mk-diyas"><g transform="translate(70 351)"><path d="M-7 0Q0 7 7 0Z"/><path class="mk-flame" d="M0-2C-3-6-1-10 0-13C1-10 3-6 0-2Z"/></g><g transform="translate(330 351)"><path d="M-7 0Q0 7 7 0Z"/><path class="mk-flame" d="M0-2C-3-6-1-10 0-13C1-10 3-6 0-2Z"/></g><g transform="translate(118 363)"><path d="M-7 0Q0 7 7 0Z"/><path class="mk-flame" d="M0-2C-3-6-1-10 0-13C1-10 3-6 0-2Z"/></g><g transform="translate(282 363)"><path d="M-7 0Q0 7 7 0Z"/><path class="mk-flame" d="M0-2C-3-6-1-10 0-13C1-10 3-6 0-2Z"/></g></g>
  <g class="mk-horizon" opacity=".35"><path d="M-1400 398Q-1380.0 392 -1360 398Q-1340.0 404 -1320 398Q-1300.0 392 -1280 398Q-1260.0 404 -1240 398Q-1220.0 392 -1200 398Q-1180.0 404 -1160 398Q-1140.0 392 -1120 398Q-1100.0 404 -1080 398Q-1060.0 392 -1040 398Q-1020.0 404 -1000 398Q-980.0 392 -960 398Q-940.0 404 -920 398Q-900.0 392 -880 398Q-860.0 404 -840 398Q-820.0 392 -800 398Q-780.0 404 -760 398Q-740.0 392 -720 398Q-700.0 404 -680 398Q-660.0 392 -640 398Q-620.0 404 -600 398Q-580.0 392 -560 398Q-540.0 404 -520 398Q-500.0 392 -480 398Q-460.0 404 -440 398Q-420.0 392 -400 398Q-380.0 404 -360 398Q-340.0 392 -320 398Q-300.0 404 -280 398Q-260.0 392 -240 398Q-220.0 404 -200 398Q-180.0 392 -160 398Q-140.0 404 -120 398Q-100.0 392 -80 398Q-60.0 404 -40 398Q-20.0 392 0 398"/><path d="M410 398Q430.0 392 450 398Q470.0 404 490 398Q510.0 392 530 398Q550.0 404 570 398Q590.0 392 610 398Q630.0 404 650 398Q670.0 392 690 398Q710.0 404 730 398Q750.0 392 770 398Q790.0 404 810 398Q830.0 392 850 398Q870.0 404 890 398Q910.0 392 930 398Q950.0 404 970 398Q990.0 392 1010 398Q1030.0 404 1050 398Q1070.0 392 1090 398Q1110.0 404 1130 398Q1150.0 392 1170 398Q1190.0 404 1210 398Q1230.0 392 1250 398Q1270.0 404 1290 398Q1310.0 392 1330 398Q1350.0 404 1370 398Q1390.0 392 1410 398Q1430.0 404 1450 398Q1470.0 392 1490 398Q1510.0 404 1530 398Q1550.0 392 1570 398Q1590.0 404 1610 398Q1630.0 392 1650 398Q1670.0 404 1690 398Q1710.0 392 1730 398Q1750.0 404 1770 398Q1790.0 392 1810 398"/><path opacity=".6" d="M-1400 412Q-1380.0 407 -1360 412Q-1340.0 417 -1320 412Q-1300.0 407 -1280 412Q-1260.0 417 -1240 412Q-1220.0 407 -1200 412Q-1180.0 417 -1160 412Q-1140.0 407 -1120 412Q-1100.0 417 -1080 412Q-1060.0 407 -1040 412Q-1020.0 417 -1000 412Q-980.0 407 -960 412Q-940.0 417 -920 412Q-900.0 407 -880 412Q-860.0 417 -840 412Q-820.0 407 -800 412Q-780.0 417 -760 412Q-740.0 407 -720 412Q-700.0 417 -680 412Q-660.0 407 -640 412Q-620.0 417 -600 412Q-580.0 407 -560 412Q-540.0 417 -520 412Q-500.0 407 -480 412Q-460.0 417 -440 412Q-420.0 407 -400 412Q-380.0 417 -360 412Q-340.0 407 -320 412Q-300.0 417 -280 412Q-260.0 407 -240 412Q-220.0 417 -200 412Q-180.0 407 -160 412Q-140.0 417 -120 412Q-100.0 407 -80 412Q-60.0 417 -40 412Q-20.0 407 0 412Q20.0 417 40 412"/><path opacity=".6" d="M390 412Q410.0 407 430 412Q450.0 417 470 412Q490.0 407 510 412Q530.0 417 550 412Q570.0 407 590 412Q610.0 417 630 412Q650.0 407 670 412Q690.0 417 710 412Q730.0 407 750 412Q770.0 417 790 412Q810.0 407 830 412Q850.0 417 870 412Q890.0 407 910 412Q930.0 417 950 412Q970.0 407 990 412Q1010.0 417 1030 412Q1050.0 407 1070 412Q1090.0 417 1110 412Q1130.0 407 1150 412Q1170.0 417 1190 412Q1210.0 407 1230 412Q1250.0 417 1270 412Q1290.0 407 1310 412Q1330.0 417 1350 412Q1370.0 407 1390 412Q1410.0 417 1430 412Q1450.0 407 1470 412Q1490.0 417 1510 412Q1530.0 407 1550 412Q1570.0 417 1590 412Q1610.0 407 1630 412Q1650.0 417 1670 412Q1690.0 407 1710 412Q1730.0 417 1750 412Q1770.0 407 1790 412Q1810.0 417 1830 412"/></g><g class="mk-stars" fill="currentColor" stroke="none"><circle cx="-37" cy="-43" r="1.5" opacity="0.25"/><circle cx="-552" cy="154" r="0.8" opacity="0.55"/><circle cx="493" cy="-91" r="1" opacity="0.25"/><circle cx="-524" cy="102" r="1.5" opacity="0.25"/><circle cx="-208" cy="-74" r="1.5" opacity="0.25"/><circle cx="993" cy="169" r="0.8" opacity="0.4"/><circle cx="591" cy="201" r="0.8" opacity="0.7"/><circle cx="-599" cy="-7" r="0.8" opacity="0.4"/><circle cx="-107" cy="94" r="1" opacity="0.25"/><circle cx="469" cy="37" r="1" opacity="0.25"/><circle cx="491" cy="172" r="1" opacity="0.55"/><circle cx="-501" cy="160" r="0.8" opacity="0.25"/><circle cx="567" cy="-15" r="1.5" opacity="0.7"/><circle cx="891" cy="40" r="1.5" opacity="0.7"/><circle cx="40" cy="33" r="1" opacity="0.4"/><circle cx="731" cy="4" r="0.8" opacity="0.55"/><circle cx="375" cy="133" r="1.2" opacity="0.7"/><circle cx="-111" cy="191" r="0.8" opacity="0.25"/><circle cx="348" cy="94" r="1" opacity="0.55"/><circle cx="-389" cy="130" r="1.5" opacity="0.25"/><circle cx="668" cy="-81" r="1.2" opacity="0.55"/><circle cx="723" cy="59" r="1.5" opacity="0.7"/><circle cx="-560" cy="-73" r="1.2" opacity="0.7"/><circle cx="727" cy="220" r="0.8" opacity="0.25"/><circle cx="797" cy="38" r="1.5" opacity="0.55"/><circle cx="767" cy="77" r="1.2" opacity="0.25"/><circle cx="245" cy="61" r="1" opacity="0.25"/><circle cx="311" cy="-90" r="1" opacity="0.55"/><circle cx="-436" cy="6" r="1.5" opacity="0.7"/><circle cx="1084" cy="134" r="0.8" opacity="0.4"/><circle cx="219" cy="85" r="1.2" opacity="0.4"/><circle cx="977" cy="100" r="1.2" opacity="0.7"/><circle cx="34" cy="229" r="1.5" opacity="0.4"/><circle cx="-391" cy="-78" r="1" opacity="0.4"/><circle cx="-225" cy="217" r="1" opacity="0.25"/><circle cx="293" cy="181" r="1" opacity="0.55"/><circle cx="-123" cy="-118" r="1" opacity="0.7"/><circle cx="394" cy="69" r="1.2" opacity="0.4"/><circle cx="714" cy="143" r="0.8" opacity="0.7"/><circle cx="1083" cy="228" r="1.5" opacity="0.7"/><circle cx="117" cy="81" r="0.8" opacity="0.7"/><circle cx="599" cy="85" r="0.8" opacity="0.4"/></g><path class="d" pathLength="1" d="M0 398C40 392 80 404 120 398S200 392 240 398S320 404 400 398"/>
  <path class="d" pathLength="1" opacity=".6" d="M20 412C60 406 100 418 140 412S220 406 260 412S340 418 380 412"/>
  <path class="d" pathLength="1" opacity=".35" d="M60 426C100 420 140 432 180 426S260 420 300 426"/>
  <path opacity=".5" d="M114 404H122M116 409H120M278 404H286M280 409H284"/>
</svg>
